<svg width="44" height="44" viewBox="0 0 44 44" fill="none" xmlns="http://www.w3.org/2000/svg">
<path fill-rule="evenodd" clip-rule="evenodd" d="M0.5 0.5H35.5C39.9183 0.5 43.5 4.08172 43.5 8.5V34.5649H37.9156V14.0844C37.9156 9.66614 34.3339 6.08442 29.9156 6.08442H6.08442V29.9156C6.08442 34.3339 9.66613 37.9156 14.0844 37.9156H32.8896V43.5H8.5C4.08172 43.5 0.5 39.9183 0.5 35.5V0.5Z" fill="url(#paint0_linear)"/>
<path d="M20.444 22.716H22.796C23.404 22.716 23.908 22.612 24.308 22.404C24.708 22.196 25.028 21.94 25.268 21.636C25.508 21.316 25.676 20.988 25.772 20.652C25.868 20.3 25.916 19.988 25.916 19.716C25.916 19.46 25.868 19.164 25.772 18.828C25.692 18.476 25.532 18.148 25.292 17.844C25.068 17.54 24.756 17.284 24.356 17.076C23.956 16.868 23.444 16.764 22.82 16.764H20.444V22.716ZM17.516 31.5V14.004H22.46C23.42 14.004 24.292 14.132 25.076 14.388C25.876 14.644 26.548 15.012 27.092 15.492C27.652 15.972 28.084 16.564 28.388 17.268C28.692 17.972 28.844 18.764 28.844 19.644C28.844 20.348 28.74 21.052 28.532 21.756C28.324 22.444 27.98 23.068 27.5 23.628C27.036 24.172 26.428 24.62 25.676 24.972C24.924 25.308 23.996 25.476 22.892 25.476H20.444V31.5H17.516Z" fill="#D9CCFF"/>
<circle cx="39" cy="40" r="3" fill="#D9CCFF"/>
<defs>
<linearGradient id="paint0_linear" x1="7.48052" y1="-6.75974" x2="46.5311" y2="50.9056" gradientUnits="userSpaceOnUse">
<stop stop-color="#E7F784"/>
<stop offset="1" stop-color="#EA4A8D" stop-opacity="0.78"/>
</linearGradient>
</defs>
</svg>
