<svg width="24" height="24" viewBox="0 0 24 24" fill="none" xmlns="http://www.w3.org/2000/svg">
<g opacity="0.8">
<path d="M20.947 8.30496C20.936 7.54796 20.796 6.79696 20.528 6.08896C20.059 4.87996 19.104 3.92396 17.895 3.45596C17.196 3.19296 16.457 3.05196 15.709 3.03596C14.747 2.99296 14.442 2.98096 12 2.98096C9.55801 2.98096 9.24501 2.98096 8.29001 3.03596C7.54301 3.05196 6.80401 3.19296 6.10501 3.45596C4.89601 3.92396 3.94001 4.87996 3.47201 6.08896C3.20901 6.78796 3.06701 7.52696 3.05301 8.27396C3.01001 9.23696 2.99701 9.54196 2.99701 11.984C2.99701 14.426 2.99701 14.738 3.05301 15.694C3.06801 16.442 3.20901 17.18 3.47201 17.881C3.94101 19.089 4.89601 20.045 6.10601 20.513C6.80201 20.785 7.54101 20.939 8.29101 20.963C9.25401 21.006 9.55901 21.019 12.001 21.019C14.443 21.019 14.756 21.019 15.711 20.963C16.458 20.948 17.197 20.807 17.897 20.544C19.106 20.075 20.061 19.119 20.53 17.911C20.793 17.211 20.934 16.473 20.949 15.724C20.992 14.762 21.005 14.457 21.005 12.014C21.003 9.57196 21.003 9.26196 20.947 8.30496ZM11.994 16.602C9.44001 16.602 7.37101 14.533 7.37101 11.979C7.37101 9.42496 9.44001 7.35596 11.994 7.35596C14.546 7.35596 16.617 9.42496 16.617 11.979C16.617 14.533 14.546 16.602 11.994 16.602ZM16.801 8.26296C16.204 8.26296 15.723 7.78096 15.723 7.18496C15.723 6.58896 16.204 6.10696 16.801 6.10696C17.396 6.10696 17.878 6.58896 17.878 7.18496C17.878 7.78096 17.396 8.26296 16.801 8.26296Z" fill="white"/>
<path d="M11.994 14.9821C13.6525 14.9821 14.997 13.6376 14.997 11.9791C14.997 10.3206 13.6525 8.97607 11.994 8.97607C10.3355 8.97607 8.99103 10.3206 8.99103 11.9791C8.99103 13.6376 10.3355 14.9821 11.994 14.9821Z" fill="white"/>
</g>
</svg>
