<svg width="25" height="24" viewBox="0 0 25 24" fill="none" xmlns="http://www.w3.org/2000/svg">
<g opacity="0.8">
<path d="M19.883 7.99704C19.896 8.17204 19.896 8.34604 19.896 8.52004C19.896 13.845 15.843 19.981 8.436 19.981C6.154 19.981 4.034 19.32 2.25 18.172C2.574 18.209 2.886 18.222 3.223 18.222C5.106 18.222 6.839 17.586 8.224 16.501C6.453 16.464 4.969 15.304 4.457 13.708C4.706 13.745 4.956 13.77 5.218 13.77C5.579 13.77 5.942 13.72 6.279 13.633C4.432 13.259 3.049 11.638 3.049 9.68004V9.63004C3.586 9.92904 4.209 10.116 4.869 10.141C3.784 9.41904 3.073 8.18404 3.073 6.78704C3.073 6.03904 3.272 5.35304 3.621 4.75504C5.604 7.19804 8.585 8.79504 11.927 8.97004C11.865 8.67004 11.827 8.35904 11.827 8.04704C11.827 5.82704 13.623 4.01904 15.855 4.01904C17.015 4.01904 18.062 4.50504 18.798 5.29104C19.708 5.11604 20.58 4.77904 21.354 4.31804C21.055 5.25304 20.418 6.03904 19.583 6.53804C20.394 6.45004 21.18 6.22604 21.902 5.91404C21.354 6.71204 20.669 7.42304 19.883 7.99704Z" fill="white"/>
</g>
</svg>
