<svg width="25" height="24" viewBox="0 0 25 24" fill="none" xmlns="http://www.w3.org/2000/svg">
<g opacity="0.8">
<path d="M21.843 7.20301C21.613 6.34501 20.938 5.66801 20.081 5.43701C18.515 5.00701 12.25 5.00001 12.25 5.00001C12.25 5.00001 5.98596 4.99301 4.41896 5.40401C3.57896 5.63301 2.88496 6.32501 2.65296 7.18201C2.23996 8.74801 2.23596 11.996 2.23596 11.996C2.23596 11.996 2.23196 15.26 2.64196 16.81C2.87196 17.667 3.54696 18.344 4.40496 18.575C5.98696 19.005 12.235 19.012 12.235 19.012C12.235 19.012 18.5 19.019 20.066 18.609C20.922 18.379 21.6 17.703 21.833 16.846C22.247 15.281 22.25 12.034 22.25 12.034C22.25 12.034 22.27 8.76901 21.843 7.20301ZM10.246 15.005L10.251 9.00501L15.458 12.01L10.246 15.005Z" fill="white"/>
</g>
</svg>
